<?xml version="1.0" encoding="UTF-8"?>
<!DOCTYPE svg PUBLIC "-//W3C//DTD SVG 1.1//EN" "http://www.w3.org/Graphics/SVG/1.1/DTD/svg11.dtd">
<!-- Creator: CorelDRAW X8 -->
<svg xmlns="http://www.w3.org/2000/svg" xml:space="preserve" width="42.3332mm" height="25.4mm" version="1.1" style="shape-rendering:geometricPrecision; text-rendering:geometricPrecision; image-rendering:optimizeQuality; fill-rule:evenodd; clip-rule:evenodd"
viewBox="0 0 4233 2540"
 xmlns:xlink="http://www.w3.org/1999/xlink">
 <defs>
  <style type="text/css">
   <![CDATA[
    .fil9 {fill:#FEFEFE}
    .fil6 {fill:#E6E7E8}
    .fil8 {fill:#373435}
    .fil10 {fill:#00A859}
    .fil23 {fill:#000001}
    .fil0 {fill:#0082CE}
    .fil27 {fill:#106149}
    .fil7 {fill:#663300}
    .fil12 {fill:#671106}
    .fil20 {fill:#682425}
    .fil13 {fill:#722D2D}
    .fil17 {fill:#752E2D}
    .fil19 {fill:#7A2D2E}
    .fil3 {fill:#85DB04}
    .fil14 {fill:#873A31}
    .fil18 {fill:#8E161E}
    .fil15 {fill:#996633}
    .fil16 {fill:#AF2633}
    .fil26 {fill:#B5CDD4}
    .fil24 {fill:#B7917B}
    .fil25 {fill:#B9947E}
    .fil21 {fill:#BD9A84}
    .fil22 {fill:#D6470E}
    .fil5 {fill:#F0CBA1}
    .fil1 {fill:#F4F5F6}
    .fil2 {fill:#FFCC00}
    .fil11 {fill:#FFCC99}
    .fil4 {fill:#011F1F;fill-rule:nonzero}
   ]]>
  </style>
 </defs>
 <g id="Capa_x0020_1">
  <metadata id="CorelCorpID_0Corel-Layer"/>
  <g id="_2190324562032">
   <g>
    <path class="fil0" d="M1950 617c0,46 18,88 50,118 2,2 4,4 6,5l6 5c7,6 17,13 25,17 38,22 87,29 131,19 18,-4 21,-6 35,-12l11 -5c15,-9 25,-15 37,-26 3,-4 7,-7 10,-11l10 -11c18,-24 32,-58 32,-90 0,-27 -1,-40 -10,-65l-6 -14c-2,-3 -3,-4 -4,-7 -1,-2 -2,-4 -4,-6 -3,-5 -5,-9 -8,-13 -7,-7 -13,-14 -20,-21 -2,-2 -3,-3 -5,-5l-6 -5c-12,-9 -25,-17 -40,-23 -47,-20 -97,-19 -144,0 -29,11 -56,32 -74,55 -3,5 -5,8 -8,13 -15,23 -24,54 -24,82z"/>
    <path class="fil1" d="M2113 502c-39,3 -73,32 -88,51 -17,21 -28,48 -19,76 2,4 3,4 12,6 5,1 10,0 13,-3 6,-5 8,-16 9,-25 6,-35 31,-62 68,-69 18,-3 35,-1 36,-16 0,-3 0,-12 -2,-14 -4,-5 -22,-6 -29,-6z"/>
   </g>
   <g>
    <path class="fil0" d="M1501 546c0,26 9,58 24,79 16,24 29,35 55,49 2,1 4,2 6,3 35,15 85,14 119,-2 2,-1 4,-1 6,-2 28,-14 50,-36 65,-62 18,-36 19,-84 0,-119 -8,-15 -16,-27 -28,-38 -43,-41 -103,-49 -160,-28 -9,4 -21,9 -29,15 -2,1 -3,2 -5,3 -18,13 -30,28 -40,47 -7,14 -13,35 -13,55z"/>
    <path class="fil1" d="M1633 474c-46,5 -75,51 -69,80 4,17 21,21 31,14 4,-3 8,-9 11,-14 3,-8 2,-12 4,-21 4,-25 64,-14 57,-43 -3,-12 -18,-18 -34,-16z"/>
   </g>
   <g>
    <path class="fil0" d="M2307 299c20,0 34,-1 52,-9 23,-10 41,-26 51,-48 11,-25 11,-56 0,-81 -16,-38 -49,-62 -95,-62 -24,0 -43,7 -61,17 -9,5 -20,16 -26,24 -10,12 -17,28 -20,44 -4,25 2,47 16,69 1,3 3,5 5,7 4,5 8,9 13,13 8,8 21,15 32,20 3,1 7,2 10,3 7,2 15,3 23,3z"/>
    <path class="fil1" d="M2303 151c-35,5 -50,44 -40,58 3,5 15,13 23,6 6,-5 8,-13 12,-21 11,-21 41,-4 31,-35 -3,-7 -2,-7 -10,-8 -6,-1 -11,-1 -16,0z"/>
   </g>
   <path class="fil2" d="M240 643c-8,68 -55,132 -79,211 15,91 47,98 169,135l646 214c150,53 272,87 430,141 73,26 142,51 210,72 68,22 152,71 233,45 118,-95 -149,-153 -281,-197 -130,-44 -265,-88 -397,-132 8,-77 94,-184 61,-221 -26,-28 -52,-4 -64,16l-71 178c-53,-9 -17,-49 -2,-90 11,-31 25,-82 49,-107l-18 -42c-35,-1 -34,-5 -58,16 -5,35 -40,104 -59,155 -9,25 -4,26 -33,33 -20,-22 -7,-31 25,-108 13,-32 42,-84 30,-122 -31,-10 -33,-17 -61,8 -8,36 -28,71 -43,106 -36,87 -18,78 -62,78 -3,-58 84,-158 62,-226 -43,-18 -45,-9 -67,21 -6,29 -24,67 -37,101 -28,72 -22,73 -58,73 -6,-19 38,-131 53,-159 13,-26 2,-8 19,-25 -5,-26 -3,-54 -41,-51 -30,3 -30,21 -46,44 -2,18 -39,150 -79,160 -19,-38 64,-202 65,-203l-13 -30c-39,-12 -45,-14 -64,24l-75 177 -26 -11c-1,-46 84,-171 62,-224l-51 -7 -15 31c-7,35 -24,67 -36,96 -12,30 -17,74 -48,75 -29,-12 -20,-10 -5,-42l36 -91c19,-55 4,-21 25,-45 2,-27 9,-55 -31,-58 -36,-2 -36,26 -49,44 -4,25 1,6 -7,30 -1,1 -8,18 -10,23 -44,109 -24,99 -69,108 -8,-35 32,-137 62,-170 -4,-28 20,-44 -14,-64 -37,-20 -47,11 -58,25 -4,34 -23,66 -36,97 -18,41 -15,70 -53,78 -16,-34 20,-87 39,-142l24 -39c-1,-27 -2,-63 -40,-58 -34,4 -24,28 -44,49z"/>
   <g>
    <path class="fil3" d="M2865 1474l-2493 0c11,39 20,168 25,214 19,201 48,397 236,508 120,72 284,51 458,51l1291 0c103,0 147,-10 215,-47 191,-102 220,-310 242,-503 7,-69 21,-154 26,-223z"/>
    <path class="fil3" d="M286 1336l0 56c70,39 13,35 137,35l2462 0c97,0 83,10 147,-29l0 -62 -56 -34 -2553 0c-119,-1 -68,-5 -137,34z"/>
    <path class="fil3" d="M2219 2438l97 0c23,-37 55,-30 43,-142 -147,-14 -213,-25 -180,84 11,37 22,29 40,58z"/>
    <path class="fil3" d="M929 2438l96 0c48,-50 49,-50 45,-143l-178 -1c-1,144 -1,84 37,144z"/>
   </g>
   <path class="fil4" d="M660 1702c0,32 -1,60 -1,85 0,25 0,46 -1,64 58,-10 104,-29 138,-58 4,-4 9,-8 14,-13 5,-5 10,-10 14,-16 5,-6 8,-12 11,-19 3,-6 4,-13 4,-20 0,-12 -4,-21 -13,-26 -8,-5 -21,-7 -38,-7 -27,0 -52,1 -75,3 -22,2 -40,4 -53,7zm-72 -47c40,-6 76,-10 105,-11 29,-1 51,-1 64,-1 26,0 46,2 62,6 15,5 27,11 36,18 8,8 14,17 16,28 3,11 4,23 4,36 0,13 -3,26 -9,39 -6,13 -15,25 -25,38 -10,12 -23,24 -37,34 -14,11 -29,21 -45,30 -16,8 -32,15 -49,21 -17,7 -33,11 -49,13l0 135 -45 0c1,-71 1,-138 1,-200 0,-23 0,-46 0,-68 0,-22 0,-43 -1,-64l-21 2 -7 -56zm310 2l267 0 0 64 -212 0 0 135c34,-1 67,-2 100,-4 32,-3 65,-6 98,-10l6 55c-38,2 -73,5 -106,7 -33,3 -65,5 -97,8l0 63 219 -20 6 55c-45,4 -89,8 -133,13 -44,4 -90,9 -138,15 2,-60 2,-115 2,-164 0,-29 0,-56 0,-81 -1,-25 -2,-48 -3,-69l-9 0 0 -67zm301 2c28,-1 56,-2 83,-3 26,-1 54,-2 82,-2 22,0 45,1 67,1 22,1 45,2 69,3l-3 55c-18,-1 -38,-3 -59,-4 -21,-1 -45,-2 -71,-3 -1,52 -2,105 -3,161 -1,56 -2,115 -2,179l-45 -2c2,-63 3,-122 4,-177 1,-55 1,-109 1,-160 -15,0 -32,2 -52,3 -20,1 -43,3 -68,5l-3 -56zm328 335c11,-1 18,-1 23,-1 5,-1 10,-1 15,-1 1,-23 2,-46 2,-71 1,-24 1,-50 1,-77 0,-44 -1,-93 -2,-144 -8,1 -15,2 -21,3 -6,0 -11,1 -15,2l-7 -55c41,-2 82,-5 125,-9l2 56c-5,0 -11,1 -17,1 -7,0 -14,0 -23,0l0 293 42 -2 2 55c-21,0 -43,1 -63,1 -21,0 -41,2 -61,4l-3 -55zm425 -251c-6,-5 -15,-9 -27,-14 -12,-4 -25,-8 -40,-12 -14,-3 -29,-6 -44,-8 -15,-3 -28,-4 -40,-4 -42,0 -63,9 -63,28 0,6 4,12 11,18 8,5 18,12 31,18 11,6 26,12 43,19 18,6 36,13 54,20 19,8 36,15 52,22 17,8 29,15 38,21 12,9 20,20 26,32 5,12 8,27 8,45 0,38 -15,66 -44,84 -29,18 -69,27 -120,27 -57,0 -107,-9 -150,-26l16 -53c37,20 84,29 140,29 35,0 63,-4 82,-14 20,-10 29,-25 29,-46 0,-10 -1,-19 -5,-25 -4,-7 -10,-12 -18,-17 -9,-5 -22,-11 -40,-19 -18,-8 -37,-15 -57,-23 -20,-8 -39,-16 -57,-23 -17,-8 -30,-14 -37,-20 -17,-9 -29,-19 -36,-30 -7,-10 -10,-23 -10,-38 0,-52 40,-78 120,-78 14,0 29,1 45,3 16,2 31,5 46,8 14,4 28,8 40,12 12,5 22,10 28,15l-21 49zm338 0c-6,-5 -15,-9 -27,-14 -12,-4 -25,-8 -39,-12 -15,-3 -29,-6 -44,-8 -15,-3 -29,-4 -41,-4 -42,0 -63,9 -63,28 0,6 4,12 11,18 8,5 18,12 31,18 11,6 26,12 44,19 17,6 35,13 54,20 18,8 35,15 51,22 17,8 29,15 38,21 12,9 20,20 26,32 5,12 8,27 8,45 0,38 -14,66 -43,84 -29,18 -69,27 -120,27 -58,0 -108,-9 -151,-26l16 -53c37,20 84,29 140,29 35,0 63,-4 82,-14 20,-10 29,-25 29,-46 0,-10 -1,-19 -5,-25 -3,-7 -10,-12 -18,-17 -9,-5 -22,-11 -40,-19 -18,-8 -37,-15 -57,-23 -20,-8 -39,-16 -56,-23 -18,-8 -31,-14 -38,-20 -17,-9 -29,-19 -36,-30 -7,-10 -10,-23 -10,-38 0,-52 40,-78 121,-78 13,0 28,1 44,3 16,2 31,5 46,8 15,4 28,8 40,12 12,5 22,10 29,15l-22 49zm146 153c19,-4 37,-7 54,-9 18,-3 36,-4 54,-5 -6,-27 -13,-53 -21,-79 -8,-26 -18,-53 -28,-80 -27,50 -64,153 -110,310l-41 -19c20,-73 42,-140 65,-201 23,-62 49,-123 77,-182l22 0c20,55 37,103 52,144 14,40 25,75 34,105l21 0 2 55 -3 0 31 83 -42 21c-7,-20 -14,-40 -20,-57 -6,-17 -12,-33 -18,-46 -21,1 -41,2 -61,5 -21,2 -41,5 -61,9l-7 -54z"/>
   <g>
    <path class="fil5" d="M2350 1095c-3,85 40,169 81,209 15,2 0,0 14,9 13,16 13,16 27,24l53 70c14,9 14,9 20,17 21,17 20,24 41,40l73 87c13,16 28,18 41,40 13,16 20,24 32,47 -43,-19 2,-14 -49,-34 11,30 36,75 48,105 14,9 26,32 33,40 6,15 19,30 25,45 33,40 108,112 149,146 27,-33 59,-101 92,-126 -11,149 -15,241 82,324 109,98 138,51 247,156 7,8 7,8 13,16 14,16 1,-7 13,23 -88,-31 -81,-24 -134,-30 0,0 0,0 1,-7 -8,0 -8,0 -8,0 -25,18 -33,17 -51,44l11 30 11 -21c8,-6 8,-6 16,-12 -12,34 -12,34 10,44 8,-6 0,0 9,-13 11,-21 12,-35 44,-45 -10,20 -27,32 -23,61l81 24c60,14 265,22 297,5l-4 -29c-33,-40 -95,-90 -121,-128 -18,-38 -66,-136 -23,-181 2,-72 118,-87 87,-262 17,-12 31,-3 69,1l-60 -7c-14,-16 -26,-39 -17,-52 -44,-12 -20,-23 -69,-58l-230 -168c-78,-52 -263,-159 -267,-245 -125,22 -260,-1 -378,-35l7 65c-30,-4 -16,5 -35,-19 -29,-17 -64,-42 -84,-59 -13,-23 -39,-54 -28,-82 17,-76 28,-161 -28,-203 -38,-4 -52,-13 -90,-10 20,24 -1,7 28,18 0,0 23,2 23,2 45,5 65,29 68,65l-14 -16c-13,-16 -26,-31 -65,-29 -37,-4 -55,15 -59,51l9 -14c16,-5 24,-11 47,-9 30,4 37,12 41,34l-21 -10c-64,-36 -75,49 -85,62z"/>
    <path class="fil6" d="M2998 674c-25,-31 -88,-34 -141,-6 -53,27 -76,75 -51,106 25,31 88,34 141,6 53,-28 76,-75 51,-106z"/>
    <path class="fil7" d="M2919 679c-5,-10 -24,-11 -44,-3 -20,7 -32,22 -27,31 4,10 24,11 43,4 20,-8 32,-22 28,-32z"/>
    <path class="fil8" d="M2899 681c-3,-6 -16,-7 -29,-1 -13,5 -20,15 -17,21 3,6 16,7 29,1 12,-5 20,-15 17,-21z"/>
    <path class="fil9" d="M2891 679c5,0 9,4 8,9 0,4 -5,7 -10,7 -5,-1 -9,-5 -8,-9 1,-5 5,-8 10,-7z"/>
    <polygon class="fil10" points="3059,1168 3064,1169 3063,1172 3059,1172 "/>
    <g>
     <path class="fil11" d="M2636 713c6,15 6,15 -17,13 10,-21 3,-22 17,-13zm-33 -39c0,0 -4,-29 22,2 -34,25 -22,-2 -22,-2zm456 494c35,-32 104,-153 119,-215 -33,18 -17,12 -47,9 -15,-59 20,-34 47,-66 -1,7 -27,-32 -24,-53 -13,-16 -21,-17 -26,-39 -21,-16 -20,-23 -56,-34l-20 33c-53,58 -191,64 -182,-13l15 -56c19,-26 16,-5 -12,-23l-13 -15c-7,-8 0,0 -14,-16l-34 -33c-21,-16 -27,-24 -47,-48 4,29 1,50 -9,71 -70,6 -63,-50 -128,-79l-33 25 10 -78c-10,13 -2,14 -19,27 -26,25 -32,10 -52,51l-20 33 -2 14c13,23 24,53 29,75 12,23 17,45 30,68l19 23c13,23 0,7 5,22l60 71c55,49 178,106 225,33l-34 -32c45,5 57,27 61,64l-14 -16c-70,70 -176,8 -239,-42 -28,-17 -59,-78 -94,-103l22 67c-22,-3 -29,-68 -34,-90l-20 -23c15,65 32,110 55,170 9,51 44,133 15,180 0,0 8,1 7,8 5,15 71,37 93,46 89,25 157,25 249,21 116,-8 72,-20 118,-22l-6 -15z"/>
    </g>
    <polygon class="fil12" points="3048,1190 3059,1187 3065,1183 3071,1215 3074,1248 3041,1244 "/>
    <path class="fil13" d="M3580 1755c-9,13 3,36 17,52l60 7c252,0 435,-179 343,-418 -40,-105 -169,-169 -258,-72 -44,45 -45,116 -4,149 29,18 88,32 108,-9 10,-13 11,-20 5,-35 -61,114 -157,-25 -81,-88 26,-18 89,-33 124,-7 27,24 27,81 14,123 -20,97 -58,157 -118,208 -27,32 -133,85 -210,90z"/>
    <path class="fil14" d="M3318 862c-39,2 -95,25 -110,23 -23,4 -16,5 -32,11 -27,32 -62,7 -46,66 30,3 14,8 47,-9 23,-5 0,0 23,-5l-9 71c25,-19 29,-47 33,-75 25,-19 72,-28 44,12 -47,66 -101,131 -52,230 19,30 27,24 10,37 0,0 0,0 0,0l48 48c46,55 137,58 187,28 16,-5 8,1 16,-5 -79,-38 -79,-38 -86,-103 -17,-109 1,-128 -4,-214 -8,-51 -20,-81 -23,-117l-46 2z"/>
    <path class="fil15" d="M3244 2296c0,0 0,0 8,0 -1,7 -1,7 -1,7 53,6 46,-1 134,30 -12,-30 1,-7 -13,-23 -6,-8 -6,-8 -13,-16 -109,-105 -138,-58 -247,-156 -97,-83 -93,-175 -82,-324 -33,25 -65,93 -92,126 -41,-34 -116,-106 -149,-146 -6,-15 -19,-30 -25,-45 -7,-8 -19,-31 -33,-40 -12,-30 -37,-75 -48,-105 51,20 6,15 49,34 -12,-23 -19,-31 -32,-47 -13,-22 -28,-24 -41,-40l-73 -87c-21,-16 -20,-23 -41,-40 -6,-8 -6,-8 -20,-17l-53 -70c-14,-8 -14,-8 -27,-24 -14,-9 1,-7 -14,-9 14,66 84,117 124,164 20,24 47,48 75,73 20,23 38,118 82,195 36,75 144,187 216,224 -6,49 -28,97 -2,135 45,70 248,150 320,187l-2 14z"/>
    <path class="fil16" d="M2530 765l-53 -127c-17,-45 -28,-82 -36,-133 -2,-50 10,-263 116,-251 -4,86 -62,122 -79,199 -15,55 -6,163 34,210l2 -14c-11,-94 14,-169 55,-250 27,-33 46,-60 65,-93 31,-61 40,-74 -1,-114 -21,-10 -51,-20 -75,-9 -57,29 -88,33 -120,101 -22,54 -39,131 -31,189 7,65 71,222 110,277l13 15z"/>
    <path class="fil12" d="M2784 1230c23,-5 1,-7 23,2 0,0 6,8 -2,14 -31,4 -8,-1 -21,-16zm-54 1c10,-13 -13,-16 10,-13 30,3 7,0 13,15 -15,-1 5,22 -23,-2zm176 -2c21,17 13,23 -2,21 -6,-15 -23,-2 2,-21zm-40 17c-9,6 7,8 -16,5 -23,-2 7,8 -7,-7 18,-20 11,-21 23,2zm-163 -40c2,43 -2,14 -11,28 -28,-25 -6,-15 11,-28zm255 36c-21,-16 9,-13 17,-12 -1,7 2,43 -17,12zm-322 -50c8,0 39,-3 13,15 -25,19 -14,-8 -13,-15zm375 56c-14,-16 -15,-2 -5,-22 0,0 1,-7 1,-7l14 9c5,22 7,8 -10,20zm-410 -82c48,41 -57,29 0,0zm8 58c102,40 298,62 408,39 22,3 38,-3 55,-15 -12,-30 0,0 -28,-25l10 -13c8,-6 6,8 15,2l-4 -29c-46,2 -2,14 -118,22 -92,4 -160,4 -249,-21 -22,-9 -88,-31 -93,-46 1,-7 -7,-8 -7,-8 -24,12 -15,-2 -25,19 0,0 -12,34 -12,34 5,22 26,32 48,41z"/>
    <path class="fil17" d="M3128 804c5,22 13,23 26,39 25,-18 18,-19 55,-15l1 57c22,3 79,-20 110,-23 13,-49 -15,-123 -51,-142 -45,-5 -49,23 -74,42 -33,18 -41,24 -67,42z"/>
    <path class="fil18" d="M2522 765l6 15 20 23c7,1 15,2 22,10l1 -7c-13,-23 -18,-45 -30,-68 -5,-22 -16,-52 -29,-75 -40,-47 -49,-155 -34,-210 17,-77 108,-131 79,-199 -106,-12 -118,201 -116,251 8,51 19,88 36,133l45 127z"/>
    <path class="fil15" d="M3645 2384c31,3 31,3 48,-16 16,-63 -161,-111 -192,-293 -43,45 5,143 23,181 26,38 88,88 121,128z"/>
    <path class="fil19" d="M2616 511l0 0c32,-11 1,-14 39,-10l-2 14c14,16 8,1 -1,7 -17,20 -23,5 -28,40l15 9c56,35 45,62 113,70 4,-36 -5,-22 13,-42 -18,-38 -23,-60 -43,-83 -8,-1 -43,-26 -50,-27 -37,-12 -46,2 -56,22z"/>
    <path class="fil15" d="M2608 1295c19,24 5,15 35,19l-7 -65c118,34 253,57 378,35l3 -21c-110,23 -306,1 -408,-39l-1 71z"/>
    <path class="fil17" d="M3193 1019c-24,69 -31,182 35,204 17,-13 8,-6 -11,-37 -48,-98 6,-164 52,-230 38,-53 -35,-25 -67,-8 -4,29 -7,50 -9,71z"/>
    <path class="fil15" d="M2350 1095c10,-13 21,-98 85,-62l21 10c-4,-22 -11,-30 -41,-34 -23,-2 -31,4 -47,9l-9 14c4,-36 22,-55 59,-51 39,-2 52,13 65,29l14 16c-3,-36 -23,-60 -68,-65 0,0 -23,-2 -23,-2 -29,-11 -8,6 -28,-18 38,-3 52,6 90,10 -35,-25 -87,-38 -115,2 -19,33 -5,99 -3,142z"/>
    <path class="fil20" d="M2605 538l-10 78 33 -25c65,29 58,85 128,79 10,-21 13,-42 9,-71 -18,20 -9,6 -13,42 -68,-8 -57,-35 -113,-70l-15 -9c5,-35 11,-20 28,-40 9,-6 15,9 1,-7l-33 18 -4 -22 0 0 -11 27z"/>
    <path class="fil15" d="M2571 806l-1 7c-7,-8 -15,-9 -22,-10 5,22 12,87 34,90l-22 -67c35,25 66,86 94,103 63,50 169,112 239,42l14 16c-4,-37 -16,-59 -61,-64l34 32c-47,73 -170,16 -225,-33l-60 -71c-5,-15 8,1 -5,-22l-19 -23z"/>
    <path class="fil21" d="M3193 2340l-11 27c40,47 103,26 170,41l-81 -24c-4,-29 13,-41 23,-61 -32,10 -33,24 -44,45 -9,13 -1,7 -9,13 -22,-10 -22,-10 -10,-44 -8,6 -8,6 -16,12l-11 21 -11 -30z"/>
    <path class="fil22" d="M2936 754l-17 13c-13,-16 -17,12 -5,-22l-17 19c6,8 13,16 36,11 24,-4 32,-10 35,-31l-21 -17 -2 14c15,9 11,-20 7,8 -2,14 21,17 -16,5z"/>
    <path class="fil19" d="M2616 511l-2 14 7 9 34 -19 2 -15c-38,-12 -8,-1 -41,11z"/>
    <path class="fil23" d="M2914 745c-12,34 -8,6 5,22l17 -13 9 -13 2 -14 -33 18z"/>
    <path class="fil24" d="M2603 674c0,0 -12,27 22,2 -26,-31 -22,-2 -22,-2z"/>
    <path class="fil25" d="M2619 726c23,2 23,2 17,-13 -14,-9 -7,-8 -17,13z"/>
    <path class="fil26" d="M2936 754c37,12 14,9 16,-5 4,-28 8,1 -7,-8l-9 13z"/>
    <path class="fil6" d="M3066 722c-25,-31 -88,-33 -141,-6 -53,28 -76,76 -51,107 25,31 89,33 141,5 53,-27 76,-75 51,-106z"/>
    <path class="fil7" d="M2966 739c-5,-9 -24,-11 -44,-3 -20,8 -32,22 -28,32 5,9 24,11 44,3 20,-8 32,-22 28,-32z"/>
    <path class="fil8" d="M2946 742c-4,-7 -16,-7 -29,-2 -13,6 -21,15 -18,22 3,6 16,7 29,1 13,-6 21,-15 18,-21z"/>
    <path class="fil9" d="M2938 739c5,1 9,5 8,9 -1,5 -5,8 -10,7 -5,0 -9,-4 -8,-9 0,-4 5,-7 10,-7z"/>
    <path class="fil9" d="M2601 1164c9,1 15,9 14,19 -1,9 -9,16 -18,15 -9,-1 -16,-10 -15,-19 2,-9 10,-16 19,-15z"/>
    <path class="fil9" d="M2645 1185c9,1 16,9 15,18 -2,10 -10,16 -19,15 -9,-1 -15,-9 -14,-18 1,-9 10,-16 18,-15z"/>
    <path class="fil9" d="M2691 1200c9,1 15,9 14,18 -1,9 -9,16 -18,15 -9,-1 -16,-9 -14,-19 1,-9 9,-15 18,-14z"/>
    <path class="fil9" d="M2742 1212c9,1 15,9 14,18 -1,9 -9,16 -18,15 -9,-1 -16,-9 -15,-19 2,-9 10,-15 19,-14z"/>
    <path class="fil9" d="M2798 1220c9,1 16,9 14,18 -1,9 -9,16 -18,15 -9,-1 -15,-9 -14,-19 1,-9 9,-15 18,-14z"/>
    <path class="fil9" d="M2853 1224c9,1 16,10 15,19 -2,9 -10,16 -19,15 -9,-1 -15,-10 -14,-19 1,-9 9,-16 18,-15z"/>
    <path class="fil9" d="M2910 1228c8,1 15,10 14,19 -2,9 -10,16 -19,15 -9,-1 -15,-10 -14,-19 1,-9 10,-16 19,-15z"/>
    <path class="fil9" d="M2969 1222c9,1 16,10 15,19 -2,9 -10,16 -19,15 -9,-1 -15,-10 -14,-19 1,-9 9,-16 18,-15z"/>
    <path class="fil9" d="M3012 1219c9,1 15,9 14,18 -1,9 -9,16 -18,15 -9,-1 -15,-9 -14,-19 1,-9 9,-15 18,-14z"/>
    <path class="fil9" d="M3060 1205c9,1 16,9 14,19 -1,9 -9,15 -18,14 -9,-1 -15,-9 -14,-18 1,-9 9,-16 18,-15z"/>
    <path class="fil12" d="M3054 1210l18 38c3,-21 -3,-36 -9,-51 -8,6 -1,7 -9,13z"/>
    <path class="fil9" d="M3060 1205c9,1 16,9 14,19 -1,9 -9,15 -18,14 -9,-1 -15,-9 -14,-18 1,-9 9,-16 18,-15z"/>
    <path class="fil9" d="M2656 500c4,7 -20,9 -30,14 -11,6 -4,13 -8,6 -4,-6 1,-16 12,-21 11,-6 23,-5 26,1z"/>
   </g>
   <g id="_2190324562224">
    <path class="fil27" d="M792 414c18,26 109,93 138,114l310 236c19,18 120,95 139,96 30,-5 8,-2 36,-18 42,-23 44,-6 130,13 46,10 158,41 197,59 -13,56 1,97 42,143 1,2 3,3 4,4 1,2 5,6 7,7 50,52 137,68 196,39l20 -13c1,-1 2,-2 3,-3 2,-1 3,-2 4,-3 2,-1 6,-5 8,-6 27,-28 23,-63 67,-71l15 -2c2,0 4,0 5,-1 12,-1 10,-2 20,-3 47,-6 50,11 68,-40 -72,-18 -124,13 -172,-52 -97,-133 -216,-71 -235,-69 -20,2 -272,-68 -304,-76 -114,-28 -478,-244 -611,-316 -36,-19 -62,-42 -87,-38zm591 355c12,5 18,17 14,28 -4,12 -17,17 -29,13 -12,-4 -18,-16 -14,-28 4,-11 17,-17 29,-13zm506 104c-33,2 -48,-7 -75,19 -70,66 1,178 99,187 64,6 105,-36 92,-100 -13,-61 -63,-108 -116,-106z"/>
    <path class="fil27" d="M1201 1193c-60,115 -12,215 87,251 162,58 184,-124 187,-131 11,-24 14,-10 23,-47 -26,-43 -9,7 -73,-65 -28,-31 -59,-41 -105,-60l57 -245c-14,-23 -42,-43 -73,-54l-51 284c-11,44 -29,40 -52,67zm103 0c-12,2 -45,-3 -67,30 -19,28 -21,61 -17,83 23,136 231,147 198,-16 -9,-48 -40,-91 -94,-98 -25,-4 -12,-1 -20,1z"/>
    <path class="fil27" d="M1403 707c2,-20 -137,-537 -171,-569 -5,35 41,393 52,454 11,65 9,74 119,115z"/>
   </g>
   <g id="_2190324561232">
    <path class="fil0" d="M2038 399c20,0 34,-1 52,-9 23,-10 41,-26 51,-48 11,-25 10,-56 0,-81 -16,-38 -50,-62 -95,-62 -24,0 -43,7 -61,17 -9,5 -20,16 -27,24 -9,12 -17,28 -19,44 -4,26 2,47 16,69 1,3 3,5 5,7 4,5 8,9 12,13 8,8 22,15 33,20 3,1 7,2 10,3 7,2 15,3 23,3z"/>
    <path class="fil1" d="M2033 251c-34,5 -50,44 -40,58 4,5 16,13 24,6 6,-5 8,-13 12,-21 11,-21 41,-4 30,-35 -2,-7 -1,-7 -9,-8 -6,-1 -11,-1 -17,0z"/>
   </g>
  </g>
 </g>
</svg>
